<?xml version="1.0" encoding="iso-8859-1"?>
<!-- Uploaded to: SVG Repo, www.svgrepo.com, Generator: SVG Repo Mixer Tools -->
<svg height="800px" width="800px" version="1.1" id="Layer_1" xmlns="http://www.w3.org/2000/svg" xmlns:xlink="http://www.w3.org/1999/xlink" 
	 viewBox="0 0 512 512" xml:space="preserve">
<circle style="fill:#366695;" cx="256" cy="256" r="256"/>
<path style="fill:#273B7A;" d="M508.002,301.315l-99.168-99.168l-102.841,50.405L207.588,256l-105.819,52.388L301.371,507.99
	C406.407,489.205,489.239,406.357,508.002,301.315z"/>
<circle style="fill:#71E2EF;" cx="157.737" cy="256" r="69.818"/>
<circle style="fill:#38C6D9;" cx="354.263" cy="256" r="69.818"/>
<path style="fill:#FFFFFF;" d="M354.263,179.286c-39.974,0-72.888,30.739-76.388,69.818h-43.748
	c-3.5-39.079-36.414-69.818-76.388-69.818c-42.301,0-76.716,34.414-76.716,76.714s34.414,76.714,76.714,76.714
	c39.974,0,72.888-30.739,76.388-69.818h43.748c3.5,39.079,36.414,69.818,76.388,69.818c42.299,0,76.714-34.414,76.714-76.714
	S396.562,179.286,354.263,179.286z M157.737,318.923c-34.695,0-62.923-28.227-62.923-62.923s28.227-62.923,62.923-62.923
	S220.66,221.305,220.66,256S192.433,318.923,157.737,318.923z M354.263,318.923c-34.695,0-62.923-28.227-62.923-62.923
	s28.227-62.923,62.923-62.923s62.923,28.227,62.923,62.923S388.958,318.923,354.263,318.923z"/>
<path style="fill:#D0D1D3;" d="M354.263,179.286c-39.974,0-72.888,30.739-76.388,69.818h-21.299v13.791h21.299
	c3.5,39.079,36.414,69.818,76.388,69.818c42.299,0,76.714-34.414,76.714-76.714S396.562,179.286,354.263,179.286z M354.263,318.923
	c-34.695,0-62.923-28.227-62.923-62.923s28.227-62.923,62.923-62.923s62.923,28.227,62.923,62.923S388.958,318.923,354.263,318.923z
	"/>
<g>
	<path style="fill:#FFFFFF;" d="M118.949,252.552c-1.764,0-3.531-0.674-4.875-2.02c-2.694-2.693-2.694-7.059,0-9.75l28.444-28.444
		c2.691-2.694,7.061-2.694,9.75,0c2.694,2.693,2.694,7.059,0,9.75l-28.444,28.444C122.48,251.878,120.713,252.552,118.949,252.552z"
		/>
	<path style="fill:#FFFFFF;" d="M118.949,280.997c-1.764,0-3.531-0.674-4.875-2.02c-2.694-2.693-2.694-7.059,0-9.75l56.889-56.889
		c2.691-2.694,7.061-2.694,9.75,0c2.694,2.693,2.694,7.059,0,9.75l-56.889,56.889C122.48,280.323,120.713,280.997,118.949,280.997z"
		/>
	<path style="fill:#FFFFFF;" d="M312.889,252.552c-1.764,0-3.531-0.674-4.875-2.02c-2.694-2.693-2.694-7.059,0-9.75l28.444-28.444
		c2.691-2.694,7.061-2.694,9.75,0c2.694,2.693,2.694,7.059,0,9.75l-28.444,28.444C316.419,251.878,314.652,252.552,312.889,252.552z
		"/>
	<path style="fill:#FFFFFF;" d="M312.889,280.997c-1.764,0-3.531-0.674-4.875-2.02c-2.694-2.693-2.694-7.059,0-9.75l56.889-56.889
		c2.691-2.694,7.061-2.694,9.75,0c2.694,2.693,2.694,7.059,0,9.75l-56.889,56.889C316.419,280.323,314.652,280.997,312.889,280.997z
		"/>
</g>
</svg>